<svg width="24" height="24" viewBox="0 0 24 24" xmlns="http://www.w3.org/2000/svg">
<path d="M18.9188 23.8125H19.5376C20.6626 23.8125 21.7313 23.3625 22.4626 22.5188C23.2501 21.6188 23.5501 20.4 23.2876 19.2375L19.1063 0.618756C19.0501 0.337506 18.7876 0.150006 18.4876 0.187506C18.3563 0.206256 18.2438 0.262506 18.1688 0.356256C18.0188 0.506256 17.6813 0.843756 17.4188 1.10626C16.8751 1.65001 16.1626 2.00626 15.3938 2.04376C14.5126 2.10001 13.6688 1.78126 13.0313 1.16251L12.2251 0.356256C12.1313 0.262506 12.0188 0.206256 11.9063 0.187506C11.6063 0.150006 11.3438 0.356256 11.2876 0.618756L7.10631 19.2375C6.99381 19.7438 6.99381 20.2688 7.08756 20.7563C7.14381 21.0938 7.25631 21.4313 7.42506 21.7313C7.55631 21.9938 7.48131 22.3125 7.25631 22.4625C7.16256 22.5375 7.05006 22.5563 6.93756 22.5563C6.73131 22.5563 6.54381 22.4438 6.43131 22.2563C6.18756 21.7875 6.03756 21.2813 5.96256 20.7563C5.94381 20.6063 5.83131 20.475 5.68131 20.4375L3.07506 19.8375C2.47506 19.7063 1.85631 19.8375 1.36881 20.2313C0.862557 20.6438 0.581307 21.2625 0.618807 21.9188C0.675057 22.9875 1.61256 23.8125 2.70006 23.8125H16.8938C16.9126 23.8125 16.9501 23.8125 16.9688 23.8125C16.9876 23.8125 17.0063 23.8125 17.0251 23.8125C17.0438 23.8125 17.0438 23.8125 17.0626 23.8125C17.3626 23.7375 17.5876 23.4188 17.4751 23.0813C17.4001 22.8563 17.1751 22.7063 16.9313 22.7063C16.6313 22.7063 16.3876 22.4438 16.3876 22.1438C16.3876 22.125 16.3876 22.1063 16.3876 22.0688L16.2938 18.5625C16.2938 18.2438 16.5376 18 16.8563 18C17.1563 18 17.4188 18.2438 17.4188 18.5625L17.4376 21.6563C18.0938 21.8813 18.5626 22.5188 18.5626 23.25C18.5626 23.3063 18.5626 23.3438 18.5626 23.4C18.5438 23.625 18.6938 23.8125 18.9188 23.8125ZM12.7501 6.37501C12.7501 6.05626 12.9938 5.81251 13.3126 5.81251C13.6313 5.81251 13.8751 6.05626 13.8751 6.37501C13.8751 6.69376 13.6313 6.93751 13.3126 6.93751C12.9938 6.93751 12.7501 6.69376 12.7501 6.37501ZM13.5001 22.575C13.1813 22.575 12.9376 22.3313 12.9376 22.0125L12.9188 18.5625C12.9188 18.2438 13.1626 18 13.4813 18C13.8001 18 14.0438 18.2438 14.0438 18.5625L14.0626 22.0125C14.0626 22.3313 13.8188 22.575 13.5001 22.575ZM17.0626 6.93751C16.7438 6.93751 16.5001 6.69376 16.5001 6.37501C16.5001 6.05626 16.7438 5.81251 17.0626 5.81251C17.3813 5.81251 17.6251 6.05626 17.6251 6.37501C17.6251 6.69376 17.3813 6.93751 17.0626 6.93751Z"/>
</svg>
