<svg width="22" height="24" viewBox="0 0 22 24" xmlns="http://www.w3.org/2000/svg">
<path d="M1 24C0.734784 24 0.48043 23.8946 0.292893 23.7071C0.105357 23.5196 0 23.2652 0 23V0.999982C2.9751e-05 0.826211 0.0453407 0.655447 0.131467 0.504522C0.217593 0.353596 0.341562 0.227718 0.491153 0.139296C0.640745 0.0508732 0.810796 0.00295743 0.984546 0.00027203C1.1583 -0.00241337 1.32975 0.0402242 1.482 0.123982L21.482 11.124C21.6388 11.2103 21.7695 11.3371 21.8606 11.4912C21.9517 11.6453 21.9997 11.821 21.9997 12C21.9997 12.179 21.9517 12.3547 21.8606 12.5087C21.7695 12.6628 21.6388 12.7897 21.482 12.876L1.482 23.876C1.33435 23.9573 1.16855 23.9999 1 24Z"/>
</svg>
