<?xml version="1.0" encoding="utf-8"?><svg viewBox="0 0 502.66 502.66" xmlns="http://www.w3.org/2000/svg" xmlns:xlink="http://www.w3.org/1999/xlink"><style>:root>svg{display:none}:root>svg:target{display:block}</style><svg fill="none" viewBox="0 0 24 24" id="age-restriction" xmlns="http://www.w3.org/2000/svg"><path d="M22 3h-1V2a1 1 0 00-2 0v1h-1a1 1 0 100 2h1v1a1 1 0 002 0V5h1a1 1 0 100-2zm-9.5 10H12a1 1 0 010-2h.5a1.001 1.001 0 001-1V9a1.001 1.001 0 00-1-1h-1a1.001 1.001 0 00-1 1 1 1 0 01-2 0 3.003 3.003 0 013-3h1a3.003 3.003 0 013 3v1a3.004 3.004 0 01-3 3z" fill="#46BF8C"/><path d="M12.5 18h-1a3.003 3.003 0 01-3-3 1 1 0 112 0 1.001 1.001 0 001 1h1a1.001 1.001 0 001-1v-1a1.001 1.001 0 00-1-1H12a1 1 0 010-2h.5a3.004 3.004 0 013 3v1a3.004 3.004 0 01-3 3z" fill="#46BF8C"/><path d="M12 23a11 11 0 112.199-21.78 1 1 0 11-.398 1.96 8.991 8.991 0 107.019 7.02 1 1 0 011.96-.4A11.008 11.008 0 0112 23z" fill="#46BF8C"/></svg><svg viewBox="0 0 12 7" id="arrow" xmlns="http://www.w3.org/2000/svg"><path d="M1 1l5 5 5-5"/></svg><svg viewBox="0 0 22 22" id="cart" xmlns="http://www.w3.org/2000/svg"><path d="M17.267 15.042H9.378a3.199 3.199 0 01-3.092-2.47l-1.257-5.11A3.212 3.212 0 018.17 3.488h10.372a3.212 3.212 0 013.143 3.972l-1.257 5.123a3.206 3.206 0 01-3.162 2.458zM8.134 5.06a1.647 1.647 0 00-1.597 2.03l1.257 5.123a1.634 1.634 0 001.597 1.257h7.876a1.634 1.634 0 001.596-1.257l1.258-5.123a1.642 1.642 0 00-1.597-2.03H8.134z"/><path d="M5.946 8.8a.786.786 0 01-.76-.628L4.06 3.288a2.018 2.018 0 00-1.974-1.56H1.062a.786.786 0 110-1.57h1.025a3.59 3.59 0 013.507 2.771l1.12 4.884a.78.78 0 01-.585.943.9.9 0 01-.183.044zm3.552 13.043a2.514 2.514 0 110-5.028 2.514 2.514 0 010 5.028zm0-3.482a.955.955 0 100 1.91.955.955 0 000-1.91zm8.687 3.482a2.514 2.514 0 110-5.029 2.514 2.514 0 010 5.029zm0-3.482a.955.955 0 10.012 1.91.955.955 0 00-.012-1.91z"/><path d="M18.185 18.36H7.713a2.445 2.445 0 110-4.89h1.665a.786.786 0 010 1.572H7.713a.874.874 0 000 1.747h10.472a.786.786 0 010 1.571z"/></svg><svg viewBox="0 0 24 24" id="cat" xmlns="http://www.w3.org/2000/svg"><path d="M18.919 23.813h.619c1.125 0 2.193-.45 2.925-1.294a3.729 3.729 0 00.825-3.281L19.106.617a.548.548 0 00-.618-.43.485.485 0 00-.32.168l-.75.75c-.543.544-1.255.9-2.024.938a3.088 3.088 0 01-2.363-.881l-.806-.807a.591.591 0 00-.319-.168.564.564 0 00-.618.43l-4.182 18.62a3.771 3.771 0 00-.018 1.518c.056.338.168.675.337.975.131.263.056.581-.169.731a.49.49 0 01-.318.094.591.591 0 01-.507-.3 4.663 4.663 0 01-.468-1.5.38.38 0 00-.282-.319l-2.606-.6c-.6-.13-1.219 0-1.706.394a2.02 2.02 0 00-.75 1.688c.056 1.069.994 1.893 2.081 1.893h14.363c.3-.075.525-.393.412-.73a.57.57 0 00-.544-.376.56.56 0 01-.543-.562v-.075l-.094-3.506c0-.32.244-.563.562-.563.3 0 .563.244.563.563l.019 3.093a1.687 1.687 0 011.125 1.594v.15c-.02.225.13.413.356.413zM12.75 6.375c0-.319.244-.562.563-.562.318 0 .562.243.562.562a.552.552 0 01-.562.563.552.552 0 01-.563-.563zm.75 16.2a.552.552 0 01-.562-.563l-.02-3.45c0-.318.245-.562.563-.562.32 0 .563.244.563.563l.019 3.45a.552.552 0 01-.563.562zm3.563-15.637a.552.552 0 01-.563-.563c0-.319.244-.562.563-.562.318 0 .562.243.562.562a.552.552 0 01-.562.563z"/></svg><svg viewBox="0 0 24 24" id="dog" xmlns="http://www.w3.org/2000/svg"><path d="M2.475 9.169c.394.281.881.319 1.2.319.281 0 1.519-.038 1.8-.057.281-.018.544-.056.788-.056.318 0 .525.037.656.131.375.863-.619 6.732-1.106 10.688v.037c-.132 1.031-.282 1.856-.432 2.456H4.275a.586.586 0 00-.581.45.562.562 0 00.544.675h3.825a.369.369 0 00.375-.393c-.02-.169 0-.338.037-.506.169-.788.9-1.332 1.725-1.332h2.081a.545.545 0 01-.037-.168c-.169-.9.018-1.82.469-2.42.168-.224.487-.318.73-.168.32.169.376.581.17.844-.263.337-.375.956-.263 1.556.019.112.056.262.113.412.168.45-.094.957-.563 1.05-.019.02-.056.02-.131.02h-2.625a.584.584 0 00-.581.468.572.572 0 00.43.656l5.72-.018h.093c1.857 0 3.132-.9 3.619-2.532.075-.281.15-.562.188-.843.224-1.575-.713-3.825-2.794-6.694-1.538-2.119-3.188-3.881-3.506-4.2L12 8.062c.319-.412.319-.6.319-.693C12.356 6.3 10.95 2.1 9.638.73 9.318.375 8.963.188 8.606.188c-.075 0-.168.018-.243.037-.694.169-.9.994-1.107 1.875-.075.319-.206.862-.318 1.012L.563 5.325a.552.552 0 00-.32.769c.038.093 1.032 2.231 2.232 3.075zm17.662 14.643a.664.664 0 00.188-.037 4.738 4.738 0 002.738-2.569.55.55 0 00-.3-.731.55.55 0 00-.732.3 3.704 3.704 0 01-2.081 1.969c-.3.112-.431.431-.337.731.075.206.3.337.524.337z"/></svg><svg fill="none" viewBox="0 0 20 18" id="email" xmlns="http://www.w3.org/2000/svg"><path fill-rule="evenodd" clip-rule="evenodd" d="M14.94 0A5.057 5.057 0 0120 5.05v7.9c0 2.79-2.27 5.05-5.06 5.05H5.06A5.057 5.057 0 010 12.95v-7.9A5.05 5.05 0 015.06 0h9.88zm1.59 6.54l.08-.08a.773.773 0 00-.01-1 .84.84 0 00-.53-.26.76.76 0 00-.56.2L11 9a1.566 1.566 0 01-2 0L4.5 5.4a.76.76 0 00-1 .07c-.27.27-.3.7-.07 1l.13.13 4.55 3.55a3.143 3.143 0 003.91 0l4.51-3.61z" fill="#46BF8C"/></svg><svg viewBox="0 0 20 21" id="facebook" xmlns="http://www.w3.org/2000/svg"><path fill-rule="evenodd" clip-rule="evenodd" d="M0 10.556c0 4.972 3.61 9.106 8.333 9.944v-7.223h-2.5V10.5h2.5V8.277c0-2.5 1.611-3.888 3.89-3.888.721 0 1.5.111 2.221.222v2.556h-1.277c-1.223 0-1.5.61-1.5 1.389V10.5h2.666l-.444 2.777h-2.222V20.5C16.389 19.662 20 15.528 20 10.556 20 5.025 15.5.5 10 .5S0 5.025 0 10.556z"/></svg><svg viewBox="0 0 20 17" id="heart" xmlns="http://www.w3.org/2000/svg"><path d="M17.657 1.8a6.173 6.173 0 00-7.929-.613 6.154 6.154 0 00-8.253.902 5.959 5.959 0 00-1.47 4.155 5.971 5.971 0 001.795 4.03l6.034 5.96A2.72 2.72 0 009.728 17a2.72 2.72 0 001.895-.765l6.034-5.962a5.968 5.968 0 001.772-4.236c0-1.587-.637-3.11-1.772-4.236zm-1.37 7.15l-6.034 5.952a.738.738 0 01-.525.216.746.746 0 01-.524-.216L3.17 8.922a4.083 4.083 0 01-1.19-2.875c0-1.075.428-2.107 1.19-2.876a4.179 4.179 0 012.915-1.18c1.09 0 2.138.424 2.915 1.18a.973.973 0 00.69.284.983.983 0 00.69-.284 4.179 4.179 0 012.914-1.18c1.092 0 2.139.424 2.915 1.18a4.084 4.084 0 011.228 2.86 4.08 4.08 0 01-1.15 2.89v.03z"/></svg><svg viewBox="0 0 502.664 502.664" id="icon" xmlns="http://www.w3.org/2000/svg"><g fill="#010002"><path d="M153.821 358.226L0 274.337v-46.463l153.821-83.414v54.574L46.636 250.523l107.185 53.431v54.272zM180.094 387.584L282.103 115.08h32.227L212.084 387.584h-31.99zM348.843 358.226v-54.272l107.164-52.999-107.164-52.59v-53.927l153.821 83.522v46.183l-153.821 84.083z"/></g></svg><svg viewBox="0 0 20 19" id="insta" xmlns="http://www.w3.org/2000/svg"><path d="M10 6.376A3.13 3.13 0 006.876 9.5 3.13 3.13 0 0010 12.624 3.13 3.13 0 0013.124 9.5 3.13 3.13 0 0010 6.376zM19.37 9.5c0-1.294.012-2.576-.06-3.867-.073-1.5-.415-2.831-1.512-3.928-1.1-1.1-2.428-1.44-3.928-1.512C12.575.12 11.293.132 10.002.132 8.71.132 7.427.12 6.135.193c-1.5.073-2.831.415-3.928 1.512C1.107 2.804.768 4.133.695 5.633.623 6.927.635 8.209.635 9.5s-.012 2.576.06 3.867c.073 1.5.415 2.831 1.512 3.928 1.1 1.1 2.428 1.44 3.928 1.512 1.294.073 2.576.061 3.867.061 1.294 0 2.576.012 3.867-.061 1.5-.073 2.832-.415 3.929-1.512 1.099-1.099 1.439-2.428 1.511-3.928.075-1.291.061-2.573.061-3.867zM10 14.307A4.8 4.8 0 015.193 9.5 4.8 4.8 0 0110 4.693 4.8 4.8 0 0114.807 9.5 4.8 4.8 0 0110 14.307zm5.004-8.688a1.121 1.121 0 01-1.123-1.123c0-.621.502-1.123 1.123-1.123a1.121 1.121 0 01.43 2.16 1.12 1.12 0 01-.43.086z"/></svg><svg fill="none" viewBox="0 0 18 20" id="location" xmlns="http://www.w3.org/2000/svg"><path fill-rule="evenodd" clip-rule="evenodd" d="M9.03 0c2.26.01 4.42.91 6 2.49a8.398 8.398 0 012.47 5.97v.05c-.06 3.03-1.76 5.82-3.88 8a22.12 22.12 0 01-3.98 3.24c-.39.33-.96.33-1.35 0-2.15-1.4-4.05-3.16-5.59-5.21A10.807 10.807 0 01.5 8.39C.52 3.74 4.34-.01 9.03 0zm0 11.26c.71 0 1.39-.27 1.89-.76.52-.51.811-1.189.811-1.9 0-1.48-1.211-2.67-2.701-2.67S6.34 7.12 6.34 8.6c0 1.461 1.18 2.64 2.66 2.66h.03z" fill="#46BF8C"/></svg><svg fill="none" viewBox="0 0 14 20" id="mobile" xmlns="http://www.w3.org/2000/svg"><path fill-rule="evenodd" clip-rule="evenodd" d="M.008 8.695c0-.62.008-1.238.015-1.86.004-.314.008-.63.01-.947C.034 2.483 2.167 0 5.11 0h3.782c2.943 0 5.075 2.483 5.075 5.888.026 1.364.034 2.728.034 4.102s-.008 2.758-.034 4.122c0 3.405-2.132 5.888-5.075 5.888H5.109C2.166 20 .034 17.517.034 14.102.017 12.816 0 11.502 0 10.167l.008-1.472zM8.28 17.64v.16c0 .674-.563 1.2-1.28 1.2-.7 0-1.28-.526-1.28-1.2v-.16c0-.656.58-1.2 1.28-1.2.717 0 1.28.544 1.28 1.2zM2.017 6.443c-.006.404-.011.807-.011 1.209L2 8.608c0 .868.012 1.723.024 2.558C2.024 13.386 3.547 15 5.65 15h2.7c2.103 0 3.626-1.614 3.626-3.827.018-.887.024-1.786.024-2.68 0-.892-.006-1.78-.024-2.666C11.976 3.614 10.453 2 8.35 2h-2.7C3.547 2 2.024 3.614 2.024 5.827l-.007.616z" fill="#46BF8C"/></svg><svg viewBox="0 0 22 24" id="play" xmlns="http://www.w3.org/2000/svg"><path d="M1 24a1 1 0 01-1-1V1A1 1 0 011.482.124l20 11a1 1 0 010 1.752l-20 11A1 1 0 011 24z"/></svg><svg fill="none" viewBox="0 0 47 29" id="quotation-marks" xmlns="http://www.w3.org/2000/svg"><path d="M18.584 28.021H.851L12.2.864h11.653l-5.269 27.157zm23.003 0H23.955L35.304.864h11.552l-5.27 27.157z" fill="#EEE"/></svg><svg fill="none" viewBox="0 0 16 16" id="search" xmlns="http://www.w3.org/2000/svg"><path d="M15.775 14.651l-2.966-2.944a7.205 7.205 0 00-.811-9.869 7.192 7.192 0 00-9.89.271 7.204 7.204 0 004.498 12.27 7.192 7.192 0 005.092-1.56l2.942 2.944a.8.8 0 001.135 0 .8.8 0 000-1.112zM7.212 12.82a5.594 5.594 0 01-5.17-3.458A5.605 5.605 0 016.12 1.725a5.593 5.593 0 015.745 2.381 5.604 5.604 0 01-.696 7.072 5.595 5.595 0 01-3.958 1.64z" fill="#70737C"/></svg><svg fill="none" viewBox="0 0 23 22" id="star" xmlns="http://www.w3.org/2000/svg"><path d="M22.982 8.81c.115-.577-.345-1.269-.919-1.269l-6.55-.922L12.525.624a.899.899 0 00-.46-.461c-.574-.346-1.263-.116-1.608.46L7.584 6.62l-6.55.922c-.345 0-.574.116-.69.346a1.117 1.117 0 000 1.614l4.712 4.612-1.149 6.572c0 .23 0 .46.115.691.345.577 1.034.807 1.609.461l5.86-3.112 5.86 3.112c.116.116.345.116.575.116h.23a1.196 1.196 0 00.92-1.384l-1.15-6.571 4.712-4.612a.634.634 0 00.344-.577z" fill="#FFCF55"/></svg><svg viewBox="0 0 12 10" id="twitter" xmlns="http://www.w3.org/2000/svg"><path fill-rule="evenodd" clip-rule="evenodd" d="M5.64 2.754l.026.415-.42-.05c-1.528-.196-2.862-.857-3.995-1.967L.697.602l-.143.406c-.302.907-.11 1.864.52 2.508.336.356.26.407-.319.195-.201-.068-.377-.118-.394-.093-.059.06.143.83.302 1.136.218.423.663.839 1.15 1.084l.411.195-.486.009c-.47 0-.487.008-.437.186.168.55.831 1.136 1.57 1.39l.52.178-.453.27c-.672.39-1.46.611-2.25.628-.377.008-.688.042-.688.068 0 .085 1.024.56 1.62.745 1.788.551 3.911.314 5.506-.627 1.133-.669 2.267-2 2.795-3.288.286-.686.571-1.94.571-2.542 0-.39.025-.44.495-.906.277-.272.538-.568.588-.653.084-.16.075-.16-.353-.017-.713.254-.814.22-.461-.16.26-.272.57-.764.57-.908 0-.025-.125.017-.268.094a4.685 4.685 0 01-.739.288l-.453.144-.411-.28C9.233.5 8.914.33 8.746.28 8.318.161 7.663.178 7.277.313c-1.049.382-1.712 1.365-1.636 2.44z"/></svg><svg viewBox="0 0 14 10" id="youtube" xmlns="http://www.w3.org/2000/svg"><path fill-rule="evenodd" clip-rule="evenodd" d="M12 .875c.552.15.985.596 1.133 1.162C13.4 3.062 13.4 5.2 13.4 5.2s0 2.138-.268 3.163a1.625 1.625 0 01-1.131 1.163C11.003 9.8 7 9.8 7 9.8s-4.003 0-5-.274A1.625 1.625 0 01.866 8.363C.6 7.34.6 5.2.6 5.2s0-2.138.267-3.163C1.015 1.47 1.448 1.026 2 .875 2.997.6 7 .6 7 .6s4.003 0 5 .275zM5.8 3.4v4l3.2-2-3.2-2z"/></svg><svg viewBox="0 0 22 22" id="Ñart" xmlns="http://www.w3.org/2000/svg"><path d="M17.267 15.042H9.378a3.199 3.199 0 01-3.092-2.47l-1.257-5.11A3.212 3.212 0 018.17 3.488h10.372a3.212 3.212 0 013.143 3.972l-1.257 5.123a3.206 3.206 0 01-3.162 2.458zM8.134 5.06a1.647 1.647 0 00-1.597 2.03l1.257 5.123a1.634 1.634 0 001.597 1.257h7.876a1.634 1.634 0 001.596-1.257l1.258-5.123a1.642 1.642 0 00-1.597-2.03H8.134z"/><path d="M5.946 8.8a.786.786 0 01-.76-.628L4.06 3.288a2.018 2.018 0 00-1.974-1.56H1.062a.786.786 0 110-1.57h1.025a3.59 3.59 0 013.507 2.771l1.12 4.884a.78.78 0 01-.585.943.9.9 0 01-.183.044zm3.552 13.043a2.514 2.514 0 110-5.028 2.514 2.514 0 010 5.028zm0-3.482a.955.955 0 100 1.91.955.955 0 000-1.91zm8.687 3.482a2.514 2.514 0 110-5.029 2.514 2.514 0 010 5.029zm0-3.482a.955.955 0 10.012 1.91.955.955 0 00-.012-1.91z" fill="#46BF8C"/><path d="M18.185 18.36H7.713a2.445 2.445 0 110-4.89h1.665a.786.786 0 010 1.572H7.713a.874.874 0 000 1.747h10.472a.786.786 0 010 1.571z" fill="#46BF8C"/></svg></svg>